# xmcd CD database file
#
# Track frame offsets:
#	150
#	19642
#	34657
#	51030
#	69202
#	84722
#	95255
#	113480
#	132227
#	151305
#	179872
#
# Disc length: 2611 seconds
#
# Revision: 0
# Processed by: cddbd v1.5.1PL0 Copyright (c) Steve Scherf et al.
# Submitted via: CDex 1.51
#
DISCID=840a310b
DTITLE=BLOOD - Waisted Garage II Disk1-NEW SENCE ROCKS
DYEAR=2005
DGENRE=Rock
TTITLE0=NOISES
TTITLE1=FOOLISH
TTITLE2=ENDLESS
TTITLE3=MY LOVE
TTITLE4=SWEET STORIES
TTITLE5=YOU
TTITLE6=DEAR MY FRIEND
TTITLE7=FLY AWAY
TTITLE8=情魂
TTITLE9=すっと二人を・・・
TTITLE10=SWEET STORIES -SPECIAL TRACK!!!!!-
EXTD=YEAR: 2005
EXTT0=
EXTT1=
EXTT2=
EXTT3=
EXTT4=
EXTT5=
EXTT6=
EXTT7=
EXTT8=
EXTT9=
EXTT10=
PLAYORDER=
